<?xml version="1.0" encoding="utf-8"?>
<!-- Generator: Adobe Illustrator 25.0.1, SVG Export Plug-In . SVG Version: 6.00 Build 0)  -->
<svg version="1.1" id="Layer_1" xmlns="http://www.w3.org/2000/svg" xmlns:xlink="http://www.w3.org/1999/xlink" x="0px" y="0px"
	 viewBox="0 0 675 241" style="enable-background:new 0 0 675 241;" xml:space="preserve">
<style type="text/css">
	.st0{fill:#FFFFFF;}
	.st1{fill:url(#SVGID_1_);}
	.st2{fill:url(#SVGID_2_);}
	.st3{fill:url(#SVGID_3_);}
	.st4{fill:url(#SVGID_4_);}
	.st5{fill:#6C90FE;}
</style>
<g>
	<g>
		<polygon class="st0" points="490.2,144.3 464.6,74.7 442.5,74.7 478.6,166.3 501.7,166.3 537.8,74.7 515.7,74.7 		"/>
		<path class="st0" d="M306.4,134.3c0,11-6.5,15.8-15.2,15.8c-8.7,0-15.7-5.6-15.7-16.4h-19.2c0,20.9,15.7,35,35,35
			c19.3,0,35-14.1,35-35v-59h-19.8V134.3z"/>
		<path class="st0" d="M391,72.3c-28.1,0-48.2,21.6-48.2,48.2s20,48.2,48.2,48.2c28.1,0,48.2-21.6,48.2-48.2S419.1,72.3,391,72.3z
			 M391,150.1c-16.9,0-28.9-13.6-28.9-29.6c0-16,12-29.6,28.9-29.6c16.9,0,28.9,13.6,28.9,29.6C419.9,136.5,407.9,150.1,391,150.1z"
			/>
		<path class="st0" d="M589.3,72.3c-28.1,0-48.2,21.6-48.2,48.2s20,48.2,48.2,48.2c28.1,0,48.2-21.6,48.2-48.2
			S617.5,72.3,589.3,72.3z M589.3,150.1c-16.9,0-28.9-13.6-28.9-29.6c0-16,12-29.6,28.9-29.6c16.9,0,28.9,13.6,28.9,29.6
			C618.3,136.5,606.2,150.1,589.3,150.1z"/>
	</g>
	<g>
		<linearGradient id="SVGID_1_" gradientUnits="userSpaceOnUse" x1="174.6603" y1="158.939" x2="50.4416" y2="157.654">
			<stop  offset="0" style="stop-color:#5B7BEF"/>
			<stop  offset="0.2532" style="stop-color:#4B6BE1"/>
			<stop  offset="0.7474" style="stop-color:#2341BE"/>
			<stop  offset="0.7995" style="stop-color:#1E3CBA"/>
		</linearGradient>
		<path class="st1" d="M88.4,182.6c1.8,1.3,11.4,8.3,20.9,15.2c10.2,7.4,31.4-23.4,31.4-23.4L64.5,119l-2.5-1.8
			C62,117.2,65.2,165.8,88.4,182.6z"/>
		<linearGradient id="SVGID_2_" gradientUnits="userSpaceOnUse" x1="73.8167" y1="184.4718" x2="73.8167" y2="48.8382">
			<stop  offset="0.1451" style="stop-color:#6C90FE"/>
			<stop  offset="0.2909" style="stop-color:#688BFB"/>
			<stop  offset="0.4515" style="stop-color:#5E7EF1"/>
			<stop  offset="0.4807" style="stop-color:#5B7BEF"/>
			<stop  offset="0.5705" style="stop-color:#4B6BE1"/>
			<stop  offset="0.7456" style="stop-color:#2341BE"/>
			<stop  offset="0.7641" style="stop-color:#1E3CBA"/>
		</linearGradient>
		<path class="st2" d="M78.3,141.2L78.3,141.2L109.2,46l0.9-2.9c0,0-37.3-2-56.9,54c-3,9.2-15.7,48.4-15.7,48.4l50.9,37
			c-3.6-3.6-6.5-7.7-8.6-12.2C75.8,161.4,75.1,151.1,78.3,141.2z"/>
		<linearGradient id="SVGID_3_" gradientUnits="userSpaceOnUse" x1="53.3399" y1="76.9456" x2="169.102" y2="45.4364">
			<stop  offset="0.1451" style="stop-color:#6C90FE"/>
			<stop  offset="0.2847" style="stop-color:#688BFB"/>
			<stop  offset="0.4384" style="stop-color:#5E7EF1"/>
			<stop  offset="0.4664" style="stop-color:#5B7BEF"/>
			<stop  offset="0.5688" style="stop-color:#4B6AE1"/>
			<stop  offset="0.7709" style="stop-color:#203EBC"/>
			<stop  offset="0.779" style="stop-color:#1E3CBA"/>
		</linearGradient>
		<path class="st3" d="M187.8,74.7c0,0-27.4-37.4-64.2-37.4c-18.7,0-50.9,0-50.9,0L53.2,97.1c2.3-4.5,5.3-8.6,9-11.9
			c7.3-6.6,16.9-10.5,27.2-10.5l0,0l93,0L187.8,74.7z"/>
		<linearGradient id="SVGID_4_" gradientUnits="userSpaceOnUse" x1="149.2597" y1="44.0985" x2="203.9446" y2="123.011">
			<stop  offset="0.1451" style="stop-color:#6C90FE"/>
			<stop  offset="0.4391" style="stop-color:#5E7FF2"/>
			<stop  offset="0.5014" style="stop-color:#5B7BEF"/>
			<stop  offset="0.8818" style="stop-color:#1E3CBA"/>
		</linearGradient>
		<path class="st4" d="M202.3,85.7c-1.1-3.4-15.7-48.5-15.7-48.5l-62.9,0c5,0.7,9.8,2.4,14.1,4.8C146.3,47,153,55,156.1,64.8l0,0
			l29.4,90.6l1.1,3.3C186.7,158.7,221.7,145.6,202.3,85.7z"/>
		<path class="st5" d="M202.3,85.7c0.8,5,0.7,10.1-0.3,14.9c-2,9.6-7.5,18.5-15.8,24.5h0l-88.4,64.2l12.2,37.4l111.8-81.2
			L202.3,85.7z"/>
	</g>
</g>
</svg>
